<svg width="28" height="25" viewBox="0 0 28 25" fill="none" xmlns="http://www.w3.org/2000/svg">
<path d="M20.3938 1.00002C22.1595 1.00002 23.8186 1.67743 25.0669 2.9049C26.3048 4.1257 27 5.7801 27 7.50497C27 9.22984 26.3048 10.8842 25.0669 12.105L14.0003 23L2.93245 12.105C1.69498 10.8843 1 9.23017 1 7.50562C1 5.78108 1.69498 4.12696 2.93245 2.90621C3.54464 2.30009 4.27287 1.81952 5.07501 1.49232C5.87715 1.16512 6.73725 0.997795 7.60553 1.00002C9.37127 1.00002 11.0303 1.67743 12.2786 2.9049L13.2922 3.90263L14.0003 4.59973L14.7072 3.90263L15.7207 2.9049C16.3332 2.29919 17.0615 1.81898 17.8636 1.49202C18.6657 1.16506 19.5257 0.99784 20.3938 1.00002Z" stroke="white" stroke-width="2"/>
</svg>
