<svg width="24" height="24" viewBox="0 0 24 24" fill="none" xmlns="http://www.w3.org/2000/svg">
<path d="M19.7782 15.2218C18.5801 14.0237 17.1541 13.1368 15.5982 12.5999C17.2646 11.4522 18.3594 9.53136 18.3594 7.35938C18.3594 3.85282 15.5066 1 12 1C8.49345 1 5.64062 3.85282 5.64062 7.35938C5.64062 9.53136 6.73543 11.4522 8.40188 12.5999C6.84598 13.1368 5.41994 14.0237 4.22184 15.2218C2.14421 17.2995 1 20.0618 1 23H2.71875C2.71875 17.8823 6.88229 13.7188 12 13.7188C17.1177 13.7188 21.2812 17.8823 21.2812 23H23C23 20.0618 21.8558 17.2995 19.7782 15.2218ZM12 12C9.44117 12 7.35938 9.91825 7.35938 7.35938C7.35938 4.8005 9.44117 2.71875 12 2.71875C14.5588 2.71875 16.6406 4.8005 16.6406 7.35938C16.6406 9.91825 14.5588 12 12 12Z" fill="white" stroke="white" stroke-width="0.3"/>
</svg>
